<?xml version="1.0" encoding="UTF-8"?>
<svg xmlns="http://www.w3.org/2000/svg" xmlns:xlink="http://www.w3.org/1999/xlink" width="322" height="322" viewBox="0 0 322 322">
<path fill="none" stroke-width="2" stroke-linecap="butt" stroke-linejoin="round" stroke="rgb(0%, 0%, 0%)" stroke-opacity="1" stroke-miterlimit="10" d="M 406.855469 374.855469 L 376 405.710938 L 355.429688 405.710938 L 345.144531 395.425781 L 376 364.570313 M 345.144531 395.425781 L 324.570313 374.855469 L 324.570313 354.285156 L 355.429688 323.429688 M 458.28125 323.429688 L 427.425781 354.285156 L 406.855469 354.285156 L 396.570313 344 L 437.710938 302.859375 L 417.140625 282.289063 L 396.570313 282.289063 L 376 302.859375 L 376 323.429688 M 262.859375 415.996094 L 314.285156 467.421875 L 314.285156 426.28125 L 304 415.996094 L 304 374.855469 L 345.144531 415.996094 L 345.144531 436.566406 M 201.148438 559.988281 L 221.71875 559.988281 L 252.574219 529.132813 L 242.289063 518.847656 L 160.007813 518.847656 L 190.863281 487.992188 L 211.433594 487.992188 M 149.722656 508.5625 L 396.570313 261.71875 M 242.289063 498.277344 L 252.574219 508.5625 L 273.144531 508.5625 L 293.714844 487.992188 L 293.714844 467.421875 L 283.429688 457.136719 M 232.003906 487.992188 L 221.71875 477.707031 L 221.71875 457.136719 L 242.289063 436.566406 L 262.859375 436.566406 L 273.144531 446.851563 " transform="matrix(1, 0, 0, -1, -143, 577)"/>
<path fill="none" stroke-width="0.8" stroke-linecap="butt" stroke-linejoin="round" stroke="rgb(0%, 0%, 0%)" stroke-opacity="0.5" stroke-dasharray="4 2 1 2 1 2" stroke-miterlimit="10" d="M 144 576 L 144 256 L 464 256 L 464 576 Z M 464 576 L 144 256 " transform="matrix(1, 0, 0, -1, -143, 577)"/>
</svg>
