<?xml version="1.0" encoding="UTF-8"?>
<svg xmlns="http://www.w3.org/2000/svg" xmlns:xlink="http://www.w3.org/1999/xlink" width="98" height="26" viewBox="0 0 98 26">
<path fill="none" stroke-width="1.2" stroke-linecap="butt" stroke-linejoin="round" stroke="rgb(0%, 0%, 0%)" stroke-opacity="1" stroke-miterlimit="10" d="M 288 436 L 276 436 L 272 432 L 272 428 L 284 428 M 272 428 L 272 420 L 276 416 L 288 416 M 308 436 L 296 436 L 292 432 L 292 428 L 308 428 L 308 420 L 304 416 L 296 416 L 292 420 M 252 416 L 252 436 L 260 428 L 260 424 L 268 416 L 268 432 L 264 436 M 212 432 L 216 436 L 228 436 L 228 432 L 212 416 L 224 416 L 228 420 M 212 412 L 308 412 M 232 428 L 232 432 L 236 436 L 244 436 L 248 432 L 248 428 M 232 424 L 232 420 L 236 416 L 244 416 L 248 420 L 248 424 " transform="matrix(1, 0, 0, -1, -211, 437)"/>
</svg>
